<?xml version="1.0" encoding="utf-8"?>
<!-- Generator: Adobe Illustrator 15.0.0, SVG Export Plug-In . SVG Version: 6.00 Build 0)  -->
<!DOCTYPE svg PUBLIC "-//W3C//DTD SVG 1.1//EN" "http://www.w3.org/Graphics/SVG/1.1/DTD/svg11.dtd">
<svg version="1.1" id="Calque_1" xmlns="http://www.w3.org/2000/svg" xmlns:xlink="http://www.w3.org/1999/xlink" x="0px" y="0px"
	 width="500px" height="500px" viewBox="0 0 500 500" enable-background="new 0 0 500 500" xml:space="preserve">
<g>
	<g>
		<path fill="#808185" d="M469.336,175.391h-52.734C415.527,84.375,341.211,10.742,250,10.742S84.473,84.375,83.496,175.391H30.762
			c-18.652,1.465-20.605,17.48-19.629,23.242l46.484,274.023c1.66,9.57,9.961,16.602,19.629,16.602h345.508
			c9.766,0,18.066-7.031,19.629-16.602l46.582-274.023C489.941,192.871,487.598,176.758,469.336,175.391z M250,50.586
			c69.238,0,125.586,55.762,126.66,124.707H123.34C124.414,106.348,180.762,50.586,250,50.586z M405.957,449.414H94.141
			l-39.844-234.18h391.406L405.957,449.414z"/>
		<path fill="#808185" d="M166.895,302.441h166.113c11.035,0,19.922-8.887,19.922-19.922s-8.887-19.922-19.922-19.922H166.895
			c-11.035,0-19.922,8.887-19.922,19.922S155.957,302.441,166.895,302.441z"/>
		<path fill="#808185" d="M166.895,402.051h166.113c11.035,0,19.922-8.887,19.922-19.922s-8.887-19.922-19.922-19.922H166.895
			c-11.035,0-19.922,8.887-19.922,19.922S155.957,402.051,166.895,402.051z"/>
	</g>
</g>
</svg>
