<?xml version="1.0" encoding="utf-8"?>
<!-- Generator: Adobe Illustrator 15.0.0, SVG Export Plug-In . SVG Version: 6.00 Build 0)  -->
<!DOCTYPE svg PUBLIC "-//W3C//DTD SVG 1.1//EN" "http://www.w3.org/Graphics/SVG/1.1/DTD/svg11.dtd">
<svg version="1.1" id="Calque_1" xmlns="http://www.w3.org/2000/svg" xmlns:xlink="http://www.w3.org/1999/xlink" x="0px" y="0px"
	 width="30px" height="30px" viewBox="10.742 10.742 40 40" enable-background="new 10.742 10.742 40 40" xml:space="preserve">
<g>
	<g>
		<g>
			<path fill="#808185" d="M30.742,29.632c-5.208,0-9.445-4.237-9.445-9.445s4.237-9.445,9.445-9.445s9.445,4.237,9.445,9.445
				S35.95,29.632,30.742,29.632z M30.742,14.073c-3.372,0-6.114,2.743-6.114,6.114s2.743,6.114,6.114,6.114s6.114-2.743,6.114-6.114
				S34.114,14.073,30.742,14.073z"/>
		</g>
		<g>
			<path fill="#808185" d="M49.077,50.742H12.408c-0.923,0-1.666-0.743-1.666-1.666c0-5.445,2.123-10.547,5.967-14.367
				c2.482-2.465,5.984-3.877,9.6-3.877h8.865c3.625,0,7.118,1.412,9.6,3.877c3.845,3.82,5.967,8.922,5.967,14.367
				C50.742,50,50,50.742,49.077,50.742z M14.154,47.412H47.33c-0.375-3.918-2.09-7.543-4.906-10.335
				c-1.861-1.845-4.506-2.906-7.249-2.906H26.31c-2.751,0-5.388,1.061-7.249,2.906C16.244,39.869,14.53,43.493,14.154,47.412
				L14.154,47.412z"/>
		</g>
	</g>
</g>
</svg>
